<!-- AI generated  -->

<svg xmlns="http://www.w3.org/2000/svg" viewBox="0 0 340 240">
  <circle cx="170" cy="120" r="165" fill="#fef3c7" />
  
  <g transform="translate(20, 20)">
    <defs>
      <linearGradient id="wood-grain" x1="0%" y1="0%" x2="100%" y2="100%">
        <stop offset="0%" stop-color="#e6d2b5" />
        <stop offset="50%" stop-color="#c4a484" />
        <stop offset="100%" stop-color="#e6d2b5" />
      </linearGradient>
    </defs>
    <rect x="50" y="30" width="200" height="140" fill="#8b572a" rx="5" ry="5" />
    <rect x="55" y="35" width="190" height="130" fill="#61401e" rx="3" ry="3" />
    <rect
      x="60"
      y="40"
      width="180"
      height="40"
      fill="url(#wood-grain)"
      rx="2"
      ry="2"
    />
    <rect x="115" y="55" width="70" height="10" fill="#8b572a" rx="5" ry="5" />
    <rect
      x="60"
      y="85"
      width="180"
      height="40"
      fill="url(#wood-grain)"
      rx="2"
      ry="2"
    />
    <rect x="115" y="100" width="70" height="10" fill="#8b572a" rx="5" ry="5" />
    <rect
      x="60"
      y="130"
      width="180"
      height="30"
      fill="url(#wood-grain)"
      rx="2"
      ry="2"
    />
    <rect x="115" y="140" width="70" height="10" fill="#8b572a" rx="5" ry="5" />
    <rect x="60" y="80" width="180" height="3" fill="#61401e" opacity="0.5" />
    <rect x="60" y="125" width="180" height="3" fill="#61401e" opacity="0.5" />
    <line
      x1="70"
      y1="45"
      x2="230"
      y2="45"
      stroke="#c4a484"
      stroke-width="1"
      opacity="0.3"
    />
    <line
      x1="70"
      y1="55"
      x2="110"
      y2="55"
      stroke="#c4a484"
      stroke-width="1"
      opacity="0.3"
    />
    <line
      x1="190"
      y1="55"
      x2="230"
      y2="55"
      stroke="#c4a484"
      stroke-width="1"
      opacity="0.3"
    />
    <line
      x1="70"
      y1="65"
      x2="230"
      y2="65"
      stroke="#c4a484"
      stroke-width="1"
      opacity="0.3"
    />
    <line
      x1="70"
      y1="90"
      x2="230"
      y2="90"
      stroke="#c4a484"
      stroke-width="1"
      opacity="0.3"
    />
    <line
      x1="70"
      y1="100"
      x2="110"
      y2="100"
      stroke="#c4a484"
      stroke-width="1"
      opacity="0.3"
    />
    <line
      x1="190"
      y1="100"
      x2="230"
      y2="100"
      stroke="#c4a484"
      stroke-width="1"
      opacity="0.3"
    />
    <line
      x1="70"
      y1="110"
      x2="230"
      y2="110"
      stroke="#c4a484"
      stroke-width="1"
      opacity="0.3"
    />
    <line
      x1="70"
      y1="135"
      x2="230"
      y2="135"
      stroke="#c4a484"
      stroke-width="1"
      opacity="0.3"
    />
    <line
      x1="70"
      y1="140"
      x2="110"
      y2="140"
      stroke="#c4a484"
      stroke-width="1"
      opacity="0.3"
    />
    <line
      x1="190"
      y1="140"
      x2="230"
      y2="140"
      stroke="#c4a484"
      stroke-width="1"
      opacity="0.3"
    />
    <line
      x1="70"
      y1="150"
      x2="230"
      y2="150"
      stroke="#c4a484"
      stroke-width="1"
      opacity="0.3"
    />
  </g>
</svg>